<?xml version="1.0" encoding="UTF-8" standalone="no"?><!DOCTYPE svg PUBLIC "-//W3C//DTD SVG 1.1//EN" "http://www.w3.org/Graphics/SVG/1.1/DTD/svg11.dtd"><svg width="100%" height="100%" viewBox="0 0 9505 3511" version="1.1" xmlns="http://www.w3.org/2000/svg" xmlns:xlink="http://www.w3.org/1999/xlink" xml:space="preserve" xmlns:serif="http://www.serif.com/" style="fill-rule:evenodd;clip-rule:evenodd;stroke-linecap:round;stroke-miterlimit:10;"><g id="DB"><g transform="matrix(31.25,0,0,31.25,-1607.02,-11908.6)"><g transform="matrix(40.7208,0,0,40.7208,121.799,445.358)"><path d="M0.058,-0l0,-0.696l0.165,0l0,0.306l0.241,-0.306l0.162,0l-0.228,0.304l0.26,0.392l-0.178,0l-0.178,-0.263l-0.079,0.106l-0,0.157l-0.165,0Z" style="fill:#1d1e1c;fill-rule:nonzero;"/></g><g transform="matrix(40.7208,0,0,40.7208,145.702,445.358)"><path d="M0.377,0.006c-0.049,0 -0.095,-0.008 -0.137,-0.025c-0.043,-0.016 -0.079,-0.039 -0.11,-0.069c-0.032,-0.031 -0.056,-0.068 -0.074,-0.113c-0.017,-0.044 -0.026,-0.093 -0.026,-0.148c-0,-0.055 0.009,-0.104 0.026,-0.148c0.017,-0.044 0.041,-0.081 0.072,-0.112c0.031,-0.031 0.067,-0.054 0.11,-0.071c0.043,-0.016 0.089,-0.024 0.139,-0.024c0.05,-0 0.097,0.008 0.139,0.024c0.043,0.017 0.08,0.04 0.112,0.071c0.031,0.031 0.055,0.068 0.073,0.112c0.017,0.044 0.026,0.093 0.026,0.148c0,0.055 -0.009,0.104 -0.026,0.148c-0.018,0.045 -0.043,0.082 -0.074,0.112c-0.031,0.031 -0.068,0.054 -0.111,0.07c-0.043,0.017 -0.089,0.025 -0.139,0.025Zm0.001,-0.137c0.025,-0 0.048,-0.006 0.069,-0.018c0.02,-0.012 0.037,-0.028 0.05,-0.048c0.014,-0.02 0.025,-0.043 0.032,-0.07c0.007,-0.026 0.011,-0.053 0.011,-0.082c0,-0.029 -0.004,-0.056 -0.011,-0.083c-0.007,-0.026 -0.018,-0.049 -0.032,-0.069c-0.013,-0.02 -0.03,-0.036 -0.05,-0.048c-0.021,-0.012 -0.044,-0.018 -0.069,-0.018c-0.026,0 -0.049,0.006 -0.07,0.018c-0.021,0.011 -0.038,0.027 -0.052,0.046c-0.014,0.02 -0.025,0.043 -0.032,0.07c-0.007,0.027 -0.011,0.055 -0.011,0.084c0,0.03 0.004,0.058 0.011,0.085c0.007,0.027 0.018,0.05 0.032,0.069c0.014,0.019 0.031,0.035 0.052,0.046c0.021,0.012 0.044,0.018 0.07,0.018Z" style="fill:#1d1e1c;fill-rule:nonzero;"/></g><g transform="matrix(40.7208,0,0,40.7208,176.487,445.358)"><path d="M0.056,-0l0,-0.696l0.274,0c0.047,0 0.091,0.008 0.132,0.023c0.04,0.015 0.075,0.038 0.104,0.067c0.029,0.029 0.052,0.065 0.069,0.108c0.017,0.043 0.025,0.091 0.025,0.145c0,0.056 -0.009,0.106 -0.026,0.15c-0.018,0.044 -0.042,0.081 -0.072,0.111c-0.03,0.03 -0.065,0.053 -0.106,0.069c-0.041,0.015 -0.084,0.023 -0.13,0.023l-0.27,0Zm0.262,-0.563l-0.098,0l-0,0.43l0.093,0c0.05,0 0.091,-0.019 0.123,-0.057c0.033,-0.039 0.049,-0.094 0.049,-0.166c0,-0.064 -0.015,-0.114 -0.044,-0.151c-0.029,-0.037 -0.07,-0.056 -0.123,-0.056Z" style="fill:#1d1e1c;fill-rule:nonzero;"/></g><g transform="matrix(40.7208,0,0,40.7208,204.829,445.358)"><path d="M0.056,-0l0,-0.696l0.464,0l0,0.136l-0.301,0l-0,0.125l0.286,0l-0,0.129l-0.286,0l-0,0.17l0.301,0l0,0.136l-0.464,0Z" style="fill:#1d1e1c;fill-rule:nonzero;"/></g><g transform="matrix(40.7208,0,0,40.7208,227.266,445.358)"><rect x="0.056" y="-0.696" width="0.165" height="0.696" style="fill:#1d1e1c;fill-rule:nonzero;"/></g><g transform="matrix(40.7208,0,0,40.7208,238.505,445.358)"><path d="M0.052,-0l0,-0.696l0.155,0l0.268,0.373c0.005,0.009 0.011,0.021 0.019,0.035c0.008,0.013 0.013,0.022 0.015,0.026l0.004,-0.001c-0.001,-0.009 -0.002,-0.023 -0.002,-0.042c-0.001,-0.019 -0.002,-0.037 -0.002,-0.054l0,-0.337l0.142,-0l0,0.696l-0.152,-0l-0.274,-0.378c-0.005,-0.009 -0.011,-0.02 -0.018,-0.033c-0.007,-0.013 -0.012,-0.021 -0.014,-0.025l-0.004,0.001c0.001,0.011 0.002,0.025 0.003,0.042c0.001,0.017 0.001,0.033 0.001,0.046l0,0.347l-0.141,-0Z" style="fill:#1d1e1c;fill-rule:nonzero;"/></g><g transform="matrix(40.7208,0,0,40.7208,267.131,445.358)"><path d="M0.083,-0l0,-0.696l0.205,0c0.046,0 0.089,0.007 0.129,0.022c0.04,0.015 0.075,0.036 0.104,0.065c0.029,0.028 0.052,0.063 0.07,0.106c0.017,0.043 0.025,0.092 0.025,0.147c0,0.061 -0.009,0.113 -0.026,0.158c-0.018,0.045 -0.042,0.082 -0.072,0.111c-0.03,0.029 -0.065,0.051 -0.104,0.065c-0.04,0.015 -0.082,0.022 -0.126,0.022l-0.205,-0Zm0.202,-0.64l-0.141,0l0,0.584l0.135,0c0.039,0 0.076,-0.006 0.109,-0.019c0.033,-0.013 0.062,-0.032 0.086,-0.057c0.024,-0.025 0.043,-0.057 0.056,-0.094c0.013,-0.037 0.02,-0.081 0.02,-0.13c0,-0.042 -0.006,-0.08 -0.018,-0.115c-0.012,-0.035 -0.029,-0.066 -0.052,-0.09c-0.023,-0.025 -0.051,-0.045 -0.084,-0.058c-0.033,-0.014 -0.07,-0.021 -0.111,-0.021Z" style="fill:#fcc319;fill-rule:nonzero;"/></g><g transform="matrix(40.7208,0,0,40.7208,294.251,445.358)"><path d="M0.083,-0l0,-0.696l0.265,0c0.055,0 0.1,0.015 0.133,0.045c0.034,0.03 0.051,0.072 0.051,0.125c0,0.041 -0.011,0.074 -0.033,0.101c-0.022,0.026 -0.048,0.043 -0.079,0.051c0.043,0.007 0.078,0.025 0.107,0.054c0.029,0.029 0.043,0.07 0.043,0.121c0,0.033 -0.005,0.062 -0.017,0.087c-0.011,0.025 -0.026,0.045 -0.044,0.062c-0.019,0.017 -0.042,0.029 -0.069,0.038c-0.027,0.008 -0.056,0.012 -0.087,0.012l-0.27,0Zm0.249,-0.643l-0.188,0l0,0.246l0.189,0c0.04,0 0.074,-0.011 0.101,-0.032c0.027,-0.022 0.04,-0.054 0.04,-0.095c0,-0.04 -0.014,-0.07 -0.041,-0.089c-0.027,-0.02 -0.061,-0.03 -0.101,-0.03Zm0.001,0.3l-0.191,0l0,0.29l0.2,0c0.023,0 0.044,-0.003 0.064,-0.009c0.02,-0.006 0.038,-0.015 0.053,-0.027c0.015,-0.013 0.027,-0.028 0.036,-0.047c0.008,-0.019 0.013,-0.042 0.013,-0.068c0,-0.025 -0.005,-0.046 -0.014,-0.063c-0.009,-0.018 -0.022,-0.032 -0.038,-0.043c-0.016,-0.011 -0.035,-0.02 -0.056,-0.025c-0.021,-0.005 -0.044,-0.008 -0.067,-0.008Z" style="fill:#fcc319;fill-rule:nonzero;"/></g></g><path d="M559.654,2189.23c-0,138.807 112.693,251.5 251.5,251.5c138.807,-0 251.5,-112.693 251.5,-251.5c-0,-138.807 -112.693,-251.5 -251.5,-251.5c-138.807,-0 -251.5,112.693 -251.5,251.5Z" style="fill:none;stroke:#1d1d1b;stroke-width:120.28px;"/><path d="M814.782,1937.74c345.938,0 626.375,138.188 626.375,484.125c0,277.438 -232.312,484.125 -595.219,484.125c-344.437,0 -712.218,-242.594 -712.218,-775.906c-0,-533.25 574.562,-1060.41 1107.84,-1060.41" style="fill:none;fill-rule:nonzero;stroke:#1d1d1b;stroke-width:120.28px;"/><path d="M1511.97,1321.16c-0,-138.807 -112.687,-251.5 -251.485,-251.5c-138.798,0 -251.484,112.693 -251.484,251.5c-0,138.807 112.686,251.5 251.484,251.5c138.798,0 251.485,-112.693 251.485,-251.5Z" style="fill:none;stroke:#1d1d1b;stroke-width:120.28px;"/><path d="M1256.85,1572.66c-345.938,-0 -626.375,-138.188 -626.375,-484.125c-0,-277.406 232.312,-484.125 595.218,-484.125c344.438,-0 712.219,242.625 712.219,775.906c0,533.281 -574.562,1060.41 -1107.84,1060.41" style="fill:none;fill-rule:nonzero;stroke:#1d1d1b;stroke-width:120.28px;"/><g><path d="M4544.39,2464.91l203.875,-203.531l-408.875,0l0,408.844l408.875,-0l-203.969,-205.219l0.094,-0.094Z" style="fill:#000400;fill-rule:nonzero;"/><path d="M2242.39,2806.29l0,-447.3l32.542,-0l1.775,59.166c9.861,-19.327 24.455,-34.908 43.783,-46.741c19.328,-11.834 40.825,-17.75 64.492,-17.75c18.933,-0 36.486,3.451 52.658,10.354c16.172,6.903 30.077,16.961 41.713,30.175c11.636,13.214 20.708,29.485 27.216,48.812c6.509,19.328 9.763,41.22 9.763,65.675c-0,24.456 -3.254,46.644 -9.763,66.563c-6.508,19.919 -15.58,36.881 -27.216,50.883c-11.636,14.003 -25.442,24.752 -41.417,32.246c-15.975,7.495 -33.429,11.242 -52.362,11.242c-23.667,-0 -44.967,-5.227 -63.9,-15.679c-18.934,-10.453 -33.331,-25.146 -43.192,-44.08l-0,196.434l-36.092,-0Zm136.084,-167.442c29.188,0 53.447,-11.636 72.775,-34.908c19.327,-23.272 28.991,-53.842 28.991,-91.709c0,-38.261 -9.368,-69.225 -28.104,-92.891c-18.736,-23.667 -43.882,-35.5 -75.437,-35.5c-30.373,-0 -54.631,11.735 -72.775,35.204c-18.145,23.469 -27.217,54.137 -27.217,92.004c-0,39.445 9.269,70.606 27.808,93.483c18.539,22.878 43.192,34.317 73.959,34.317Z" style="fill-rule:nonzero;"/><path d="M2661.88,2669.62c-14.2,-0 -27.71,-1.874 -40.529,-5.621c-12.82,-3.747 -23.963,-9.565 -33.429,-17.454c-9.467,-7.889 -16.962,-17.947 -22.484,-30.175c-5.522,-12.228 -8.283,-26.625 -8.283,-43.192c-0,-16.172 2.958,-30.372 8.875,-42.6c5.917,-12.228 13.904,-22.385 23.962,-30.471c10.059,-8.086 21.695,-14.101 34.909,-18.046c13.214,-3.944 26.921,-5.916 41.121,-5.916c19.327,-0 36.387,3.353 51.179,10.058c14.791,6.706 26.329,16.172 34.612,28.4l0,-53.25c0,-24.85 -6.804,-43.685 -20.412,-56.504c-13.609,-12.819 -35.599,-19.229 -65.971,-19.229c-18.145,-0 -34.218,1.775 -48.221,5.325c-14.003,3.55 -25.935,7.494 -35.796,11.833l0,-29.583c8.284,-4.734 20.61,-9.171 36.979,-13.313c16.37,-4.141 34.81,-6.212 55.321,-6.212c40.234,-0 69.225,9.368 86.975,28.104c17.75,18.736 26.625,44.079 26.625,76.029l0,160.342c0,9.466 0.395,18.637 1.184,27.512c0.788,8.875 1.775,15.679 2.958,20.413l-34.908,-0l-3.55,-37.867c-8.678,13.411 -21.202,23.667 -37.571,30.767c-16.37,7.1 -34.218,10.65 -53.546,10.65Zm11.833,-25.442c9.861,0 19.624,-1.479 29.288,-4.437c9.664,-2.959 18.243,-7.495 25.737,-13.609c7.495,-6.114 13.51,-13.707 18.046,-22.779c4.536,-9.072 6.804,-19.722 6.804,-31.95c0,-11.439 -2.169,-21.497 -6.508,-30.175c-4.339,-8.678 -10.157,-15.876 -17.454,-21.596c-7.297,-5.719 -15.679,-10.058 -25.146,-13.016c-9.467,-2.959 -19.131,-4.438 -28.992,-4.438c-21.3,0 -40.134,5.621 -56.504,16.863c-16.369,11.241 -24.554,28.695 -24.554,52.362c-0,25.639 7.889,44.178 23.667,55.617c15.777,11.439 34.316,17.158 55.616,17.158Z" style="fill-rule:nonzero;"/><path d="M2888.49,2298.05c-5.916,0 -11.044,-2.071 -15.383,-6.212c-4.339,-4.142 -6.508,-9.171 -6.508,-15.088c-0,-6.311 2.169,-11.636 6.508,-15.975c4.339,-4.339 9.467,-6.508 15.383,-6.508c6.311,-0 11.735,2.169 16.271,6.508c4.536,4.339 6.804,9.664 6.804,15.975c0,5.917 -2.268,10.946 -6.804,15.088c-4.536,4.141 -9.96,6.212 -16.271,6.212Zm-17.75,368.017l0,-307.667l36.092,0l-0,307.667l-36.092,-0Z" style="fill-rule:nonzero;"/><path d="M2993.8,2666.07l-0,-307.667l32.542,0l2.366,53.25c8.678,-17.75 21.399,-31.851 38.163,-42.304c16.764,-10.453 37.176,-15.679 61.237,-15.679c33.528,-0 59.167,10.453 76.917,31.358c17.75,20.906 26.625,49.503 26.625,85.792l-0,195.25l-36.092,-0l0,-188.742c0,-29.189 -6.508,-51.968 -19.525,-68.337c-13.016,-16.37 -32.541,-24.555 -58.575,-24.555c-13.805,0 -26.23,2.564 -37.275,7.692c-11.044,5.128 -20.215,11.833 -27.512,20.117c-7.297,8.283 -12.918,18.046 -16.863,29.287c-3.944,11.242 -5.916,22.977 -5.916,35.204l-0,189.334l-36.092,-0Z" style="fill-rule:nonzero;"/><rect x="3316.26" y="2240.07" width="36.092" height="426" style="fill-rule:nonzero;"/><path d="M3576,2670.21c-21.3,0 -41.417,-3.451 -60.35,-10.354c-18.933,-6.902 -35.303,-17.158 -49.108,-30.766c-13.806,-13.609 -24.85,-30.57 -33.134,-50.884c-8.283,-20.314 -12.425,-43.882 -12.425,-70.704c0,-22.878 3.452,-43.783 10.354,-62.717c6.903,-18.933 16.37,-35.204 28.4,-48.812c12.031,-13.608 26.132,-24.16 42.305,-31.654c16.172,-7.495 33.527,-11.242 52.066,-11.242c21.3,0 40.036,3.747 56.209,11.242c16.172,7.494 29.484,17.75 39.937,30.766c10.453,13.017 18.243,28.499 23.371,46.446c5.128,17.948 7.297,37.374 6.508,58.279l-0.591,11.834l-221.875,-0c0.394,21.3 4.043,39.937 10.945,55.912c6.903,15.975 15.877,29.386 26.921,40.234c11.045,10.847 23.963,18.933 38.754,24.258c14.792,5.325 30.668,7.987 47.63,7.987c19.722,0 37.472,-2.859 53.25,-8.579c15.777,-5.719 29.188,-11.932 40.233,-18.637l-0,29.583c-11.045,7.889 -24.85,14.496 -41.417,19.821c-16.566,5.325 -35.894,7.987 -57.983,7.987Zm-21.892,-283.408c-25.639,0 -47.037,8.875 -64.196,26.625c-17.158,17.75 -27.512,41.614 -31.062,71.592l188.15,-0c-0.789,-30.767 -9.763,-54.828 -26.921,-72.184c-17.158,-17.355 -39.149,-26.033 -65.971,-26.033Z" style="fill-rule:nonzero;"/><path d="M3825.69,2670.21c-20.511,0 -38.853,-1.972 -55.025,-5.916c-16.172,-3.945 -29.78,-8.678 -40.825,-14.2l0,-30.767c14.2,6.311 28.597,11.439 43.192,15.383c14.594,3.945 31.753,5.917 51.475,5.917c20.511,0 37.965,-4.142 52.362,-12.425c14.398,-8.283 21.596,-20.905 21.596,-37.867c0,-17.75 -6.705,-31.062 -20.116,-39.937c-13.412,-8.875 -35.698,-19.821 -66.859,-32.838c-33.528,-13.805 -55.715,-26.526 -66.562,-38.162c-10.847,-11.636 -16.271,-27.118 -16.271,-46.446c-0,-22.483 9.861,-41.318 29.583,-56.504c19.722,-15.186 46.742,-22.779 81.059,-22.779c19.327,-0 35.993,1.775 49.995,5.325c14.003,3.55 25.738,7.297 35.205,11.241l-0,32.542c-12.228,-5.128 -24.949,-9.565 -38.163,-13.312c-13.214,-3.748 -28.696,-5.621 -46.446,-5.621c-22.878,-0 -41.121,3.944 -54.729,11.833c-13.608,7.889 -20.412,19.722 -20.412,35.5c-0,13.017 5.226,23.963 15.679,32.838c10.453,8.875 31.457,19.623 63.012,32.245c30.372,12.228 53.152,24.456 68.338,36.684c15.186,12.228 22.779,30.372 22.779,54.433c-0,13.806 -3.057,25.935 -9.171,36.388c-6.114,10.452 -14.2,19.13 -24.258,26.033c-10.059,6.903 -21.695,12.031 -34.909,15.383c-13.213,3.353 -26.723,5.029 -40.529,5.029Z" style="fill-rule:nonzero;"/><path d="M4059.39,2670.21c-20.512,0 -38.853,-1.972 -55.025,-5.916c-16.173,-3.945 -29.781,-8.678 -40.825,-14.2l-0,-30.767c14.2,6.311 28.597,11.439 43.191,15.383c14.595,3.945 31.753,5.917 51.475,5.917c20.511,0 37.966,-4.142 52.363,-12.425c14.397,-8.283 21.596,-20.905 21.596,-37.867c-0,-17.75 -6.706,-31.062 -20.117,-39.937c-13.411,-8.875 -35.697,-19.821 -66.858,-32.838c-33.528,-13.805 -55.716,-26.526 -66.563,-38.162c-10.847,-11.636 -16.271,-27.118 -16.271,-46.446c0,-22.483 9.861,-41.318 29.584,-56.504c19.722,-15.186 46.741,-22.779 81.058,-22.779c19.328,-0 35.993,1.775 49.996,5.325c14.003,3.55 25.737,7.297 35.204,11.241l-0,32.542c-12.228,-5.128 -24.949,-9.565 -38.163,-13.312c-13.213,-3.748 -28.695,-5.621 -46.445,-5.621c-22.878,-0 -41.121,3.944 -54.73,11.833c-13.608,7.889 -20.412,19.722 -20.412,35.5c-0,13.017 5.226,23.963 15.679,32.838c10.453,8.875 31.457,19.623 63.013,32.245c30.372,12.228 53.151,24.456 68.337,36.684c15.186,12.228 22.779,30.372 22.779,54.433c0,13.806 -3.057,25.935 -9.171,36.388c-6.113,10.452 -14.2,19.13 -24.258,26.033c-10.058,6.903 -21.694,12.031 -34.908,15.383c-13.214,3.353 -26.724,5.029 -40.529,5.029Z" style="fill-rule:nonzero;"/><path d="M4901,2666.07l-0,-411.8l40.233,-0l210.634,314.766c3.944,7.495 8.48,15.877 13.608,25.146c5.128,9.27 8.48,15.482 10.058,18.638l1.775,-0.592c-0.394,-2.761 -0.887,-10.65 -1.479,-23.667c-0.592,-13.016 -0.887,-25.638 -0.887,-37.866l-0,-296.425l34.316,-0l0,411.8l-42.008,-0l-210.633,-317.134c-3.156,-6.705 -7.002,-14.298 -11.538,-22.779c-4.536,-8.48 -7.593,-14.101 -9.171,-16.862l-2.366,0.591c0.394,4.734 0.788,12.524 1.183,23.371c0.394,10.848 0.592,20.413 0.592,28.696l-0,304.117l-34.317,-0Z" style="fill-rule:nonzero;"/><path d="M5421.67,2669.62c-20.117,-0 -38.853,-3.649 -56.209,-10.946c-17.355,-7.297 -32.344,-17.651 -44.966,-31.063c-12.623,-13.411 -22.484,-29.977 -29.584,-49.7c-7.1,-19.722 -10.65,-41.811 -10.65,-66.266c0,-24.456 3.55,-46.545 10.65,-66.267c7.1,-19.722 16.961,-36.387 29.584,-49.996c12.622,-13.608 27.611,-24.061 44.966,-31.358c17.356,-7.297 36.092,-10.946 56.209,-10.946c20.116,0 38.852,3.649 56.208,10.946c17.355,7.297 32.246,17.75 44.671,31.358c12.425,13.609 22.187,30.274 29.287,49.996c7.1,19.722 10.65,41.811 10.65,66.267c0,24.455 -3.55,46.544 -10.65,66.266c-7.1,19.723 -16.862,36.289 -29.287,49.7c-12.425,13.412 -27.316,23.766 -44.671,31.063c-17.356,7.297 -36.092,10.946 -56.208,10.946Zm-0,-31.95c16.172,-0 30.668,-3.254 43.487,-9.763c12.82,-6.508 23.667,-15.383 32.542,-26.625c8.875,-11.241 15.679,-24.554 20.412,-39.937c4.734,-15.384 7.1,-31.95 7.1,-49.7c0,-37.472 -9.171,-67.647 -27.512,-90.525c-18.342,-22.878 -43.685,-34.317 -76.029,-34.317c-32.345,0 -57.787,11.439 -76.325,34.317c-18.539,22.878 -27.809,53.053 -27.809,90.525c0,17.75 2.367,34.316 7.1,49.7c4.734,15.383 11.538,28.696 20.413,39.937c8.875,11.242 19.821,20.117 32.837,26.625c13.017,6.509 27.611,9.763 43.784,9.763Z" style="fill-rule:nonzero;"/><path d="M5730.52,2669.62c-24.456,-0 -47.432,-3.057 -68.93,-9.171c-21.497,-6.114 -38.359,-12.918 -50.587,-20.413l-0,-37.275c16.172,9.467 34.908,17.159 56.208,23.075c21.3,5.917 42.009,8.875 62.125,8.875c12.228,0 24.259,-1.084 36.092,-3.254c11.833,-2.169 22.286,-5.719 31.358,-10.65c9.072,-4.93 16.468,-11.636 22.188,-20.116c5.719,-8.481 8.579,-19.032 8.579,-31.655c-0,-12.227 -2.663,-22.581 -7.988,-31.062c-5.325,-8.481 -12.819,-16.271 -22.483,-23.371c-9.664,-7.1 -21.399,-14.397 -35.204,-21.892c-13.806,-7.494 -29.386,-16.172 -46.742,-26.033c-16.566,-9.861 -31.259,-18.835 -44.079,-26.921c-12.819,-8.086 -23.469,-16.271 -31.95,-24.554c-8.48,-8.283 -14.89,-17.355 -19.229,-27.217c-4.339,-9.861 -6.508,-21.497 -6.508,-34.908c-0,-18.539 4.043,-34.317 12.129,-47.333c8.086,-13.017 18.539,-23.667 31.358,-31.95c12.82,-8.284 27.315,-14.299 43.488,-18.046c16.172,-3.747 32.344,-5.621 48.516,-5.621c20.511,0 39.642,1.972 57.392,5.917c17.75,3.944 33.133,9.072 46.15,15.383l-0,38.458c-13.806,-7.494 -29.682,-13.411 -47.629,-17.75c-17.947,-4.338 -35.796,-6.508 -53.546,-6.508c-11.833,0 -23.667,1.183 -35.5,3.55c-11.833,2.367 -22.286,6.015 -31.358,10.946c-9.073,4.931 -16.468,11.439 -22.188,19.525c-5.719,8.086 -8.579,18.243 -8.579,30.471c-0,11.044 2.367,20.511 7.1,28.4c4.733,7.889 11.439,15.285 20.117,22.187c8.677,6.903 19.426,13.806 32.245,20.709c12.82,6.902 27.316,15.087 43.488,24.554c16.172,9.466 31.26,18.144 45.262,26.033c14.003,7.889 25.935,16.172 35.796,24.85c9.861,8.678 17.553,18.44 23.075,29.288c5.522,10.847 8.284,23.962 8.284,39.345c-0,18.145 -3.55,33.725 -10.65,46.742c-7.1,13.017 -16.863,23.765 -29.288,32.246c-12.425,8.481 -27.118,14.792 -44.079,18.933c-16.961,4.142 -35.106,6.213 -54.433,6.213Z" style="fill-rule:nonzero;"/><path d="M5917.49,2458.98c0,-32.344 4.832,-61.631 14.496,-87.862c9.664,-26.231 22.976,-48.319 39.938,-66.267c16.961,-17.947 37.275,-31.752 60.941,-41.416c23.667,-9.664 49.306,-14.496 76.917,-14.496c28.005,-0 53.842,4.832 77.508,14.496c23.667,9.664 44.079,23.469 61.238,41.416c17.158,17.948 30.569,40.036 40.233,66.267c9.664,26.231 14.496,55.518 14.496,87.862c-0,58.378 -15.581,105.613 -46.742,141.705c-31.161,36.091 -72.775,58.082 -124.841,65.97c23.666,8.678 49.305,16.764 76.916,24.259c27.611,7.494 53.447,13.016 77.509,16.566l-12.425,31.359c-18.145,-2.367 -38.755,-6.509 -61.83,-12.425c-23.075,-5.917 -46.544,-12.82 -70.408,-20.709c-23.864,-7.888 -47.235,-16.862 -70.112,-26.92c-22.878,-10.059 -42.798,-20.413 -59.759,-31.063c-30.372,-19.328 -53.644,-44.769 -69.816,-76.325c-16.173,-31.555 -24.259,-69.028 -24.259,-112.417Zm192.884,176.909c22.088,-0 42.6,-4.24 61.533,-12.721c18.933,-8.481 35.105,-20.413 48.517,-35.796c13.411,-15.383 23.962,-34.021 31.654,-55.912c7.691,-21.892 11.537,-46.052 11.537,-72.48c0,-26.427 -3.747,-50.488 -11.241,-72.183c-7.495,-21.694 -18.046,-40.233 -31.655,-55.617c-13.608,-15.383 -29.78,-27.315 -48.516,-35.795c-18.736,-8.481 -39.346,-12.721 -61.829,-12.721c-22.089,-0 -42.6,4.24 -61.534,12.721c-18.933,8.48 -35.105,20.314 -48.516,35.5c-13.412,15.186 -23.963,33.725 -31.655,55.616c-7.691,21.892 -11.537,46.052 -11.537,72.479c-0,26.823 3.846,51.081 11.537,72.775c7.692,21.695 18.342,40.234 31.95,55.617c13.609,15.383 29.781,27.315 48.517,35.796c18.736,8.481 39.149,12.721 61.238,12.721Z" style="fill-rule:nonzero;"/><path d="M6378.99,2666.07l0,-411.8l36.092,-0l-0,380.441l205.308,0l0,31.359l-241.4,-0Z" style="fill-rule:nonzero;"/><path d="M6917.99,2669.62c-18.934,-0 -36.487,-3.353 -52.659,-10.059c-16.172,-6.705 -30.175,-16.566 -42.008,-29.583c-11.833,-13.017 -21.103,-29.386 -27.808,-49.108c-6.706,-19.722 -10.059,-42.403 -10.059,-68.042c0,-24.455 3.452,-46.544 10.354,-66.267c6.903,-19.722 16.37,-36.387 28.4,-49.995c12.031,-13.609 26.231,-24.16 42.6,-31.655c16.37,-7.494 34.218,-11.241 53.546,-11.241c26.034,-0 47.827,5.719 65.379,17.158c17.553,11.439 30.668,25.639 39.346,42.6l0,-173.358l36.092,-0l-0,426l-32.542,-0l-2.366,-60.35c-11.045,20.511 -26.231,36.289 -45.559,47.333c-19.328,11.045 -40.233,16.567 -62.716,16.567Zm7.691,-31.359c15.778,0 29.978,-3.155 42.6,-9.466c12.622,-6.311 23.371,-14.989 32.246,-26.034c8.875,-11.044 15.581,-24.258 20.117,-39.641c4.536,-15.384 6.804,-31.95 6.804,-49.7c-0,-37.867 -9.171,-68.831 -27.513,-92.892c-18.341,-24.061 -43.093,-36.092 -74.254,-36.092c-30.766,0 -55.321,11.834 -73.662,35.5c-18.342,23.667 -27.513,54.434 -27.513,92.3c0,37.078 8.875,67.352 26.625,90.821c17.75,23.47 42.6,35.204 74.55,35.204Z" style="fill-rule:nonzero;"/><path d="M7232.76,2669.62c-14.2,-0 -27.709,-1.874 -40.529,-5.621c-12.819,-3.747 -23.962,-9.565 -33.429,-17.454c-9.467,-7.889 -16.961,-17.947 -22.483,-30.175c-5.523,-12.228 -8.284,-26.625 -8.284,-43.192c0,-16.172 2.959,-30.372 8.875,-42.6c5.917,-12.228 13.904,-22.385 23.963,-30.471c10.058,-8.086 21.694,-14.101 34.908,-18.046c13.214,-3.944 26.921,-5.916 41.121,-5.916c19.328,-0 36.387,3.353 51.179,10.058c14.792,6.706 26.329,16.172 34.613,28.4l-0,-53.25c-0,-24.85 -6.805,-43.685 -20.413,-56.504c-13.608,-12.819 -35.599,-19.229 -65.971,-19.229c-18.144,-0 -34.218,1.775 -48.221,5.325c-14.002,3.55 -25.934,7.494 -35.795,11.833l-0,-29.583c8.283,-4.734 20.609,-9.171 36.979,-13.313c16.369,-4.141 34.809,-6.212 55.321,-6.212c40.233,-0 69.225,9.368 86.975,28.104c17.75,18.736 26.625,44.079 26.625,76.029l-0,160.342c-0,9.466 0.394,18.637 1.183,27.512c0.789,8.875 1.775,15.679 2.958,20.413l-34.908,-0l-3.55,-37.867c-8.678,13.411 -21.201,23.667 -37.571,30.767c-16.369,7.1 -34.218,10.65 -53.546,10.65Zm11.834,-25.442c9.861,0 19.623,-1.479 29.287,-4.437c9.664,-2.959 18.243,-7.495 25.738,-13.609c7.494,-6.114 13.509,-13.707 18.045,-22.779c4.537,-9.072 6.805,-19.722 6.805,-31.95c-0,-11.439 -2.17,-21.497 -6.509,-30.175c-4.339,-8.678 -10.157,-15.876 -17.454,-21.596c-7.297,-5.719 -15.679,-10.058 -25.146,-13.016c-9.466,-2.959 -19.13,-4.438 -28.991,-4.438c-21.3,0 -40.135,5.621 -56.505,16.863c-16.369,11.241 -24.554,28.695 -24.554,52.362c0,25.639 7.889,44.178 23.667,55.617c15.778,11.439 34.317,17.158 55.617,17.158Z" style="fill-rule:nonzero;"/><path d="M7522.09,2669.62c-8.283,-0 -16.566,-1.085 -24.85,-3.254c-8.283,-2.17 -15.778,-5.818 -22.483,-10.946c-6.706,-5.128 -12.228,-11.932 -16.567,-20.413c-4.339,-8.48 -6.508,-19.032 -6.508,-31.654l-0,-215.367l-37.867,0l0,-29.583l37.867,0l4.142,-60.35l31.95,0l-0,60.35l88.75,0l-0,29.583l-88.75,0l-0,207.675c-0,14.2 3.747,25.048 11.241,32.542c7.495,7.495 17.356,11.242 29.584,11.242c9.861,-0 18.44,-1.282 25.737,-3.846c7.297,-2.564 14.496,-5.621 21.596,-9.171l-0,27.808c-6.706,3.945 -14.299,7.495 -22.779,10.65c-8.481,3.156 -18.835,4.734 -31.063,4.734Z" style="fill-rule:nonzero;"/><path d="M7712.01,2669.62c-14.2,-0 -27.709,-1.874 -40.529,-5.621c-12.819,-3.747 -23.962,-9.565 -33.429,-17.454c-9.467,-7.889 -16.961,-17.947 -22.483,-30.175c-5.523,-12.228 -8.284,-26.625 -8.284,-43.192c0,-16.172 2.959,-30.372 8.875,-42.6c5.917,-12.228 13.904,-22.385 23.963,-30.471c10.058,-8.086 21.694,-14.101 34.908,-18.046c13.214,-3.944 26.921,-5.916 41.121,-5.916c19.328,-0 36.387,3.353 51.179,10.058c14.792,6.706 26.329,16.172 34.613,28.4l-0,-53.25c-0,-24.85 -6.805,-43.685 -20.413,-56.504c-13.608,-12.819 -35.599,-19.229 -65.971,-19.229c-18.144,-0 -34.218,1.775 -48.221,5.325c-14.002,3.55 -25.934,7.494 -35.795,11.833l-0,-29.583c8.283,-4.734 20.609,-9.171 36.979,-13.313c16.369,-4.141 34.809,-6.212 55.321,-6.212c40.233,-0 69.225,9.368 86.975,28.104c17.75,18.736 26.625,44.079 26.625,76.029l-0,160.342c-0,9.466 0.394,18.637 1.183,27.512c0.789,8.875 1.775,15.679 2.958,20.413l-34.908,-0l-3.55,-37.867c-8.678,13.411 -21.201,23.667 -37.571,30.767c-16.369,7.1 -34.218,10.65 -53.546,10.65Zm11.834,-25.442c9.861,0 19.623,-1.479 29.287,-4.437c9.664,-2.959 18.243,-7.495 25.738,-13.609c7.494,-6.114 13.509,-13.707 18.045,-22.779c4.537,-9.072 6.805,-19.722 6.805,-31.95c-0,-11.439 -2.17,-21.497 -6.509,-30.175c-4.339,-8.678 -10.157,-15.876 -17.454,-21.596c-7.297,-5.719 -15.679,-10.058 -25.146,-13.016c-9.466,-2.959 -19.13,-4.438 -28.991,-4.438c-21.3,0 -40.135,5.621 -56.505,16.863c-16.369,11.241 -24.554,28.695 -24.554,52.362c0,25.639 7.889,44.178 23.667,55.617c15.778,11.439 34.317,17.158 55.617,17.158Z" style="fill-rule:nonzero;"/><path d="M8062.87,2669.62c-26.823,-0 -49.207,-6.213 -67.155,-18.638c-17.947,-12.425 -31.457,-27.512 -40.529,-45.262l-2.366,60.35l-31.95,-0l-0,-426l36.091,-0l0,175.133c9.861,-18.144 24.16,-32.936 42.896,-44.375c18.736,-11.439 40.529,-17.158 65.379,-17.158c18.539,-0 35.895,3.353 52.067,10.058c16.172,6.706 30.076,16.567 41.712,29.583c11.637,13.017 20.709,29.387 27.217,49.109c6.508,19.722 9.763,42.403 9.763,68.041c-0,24.062 -3.353,45.953 -10.059,65.675c-6.705,19.723 -16.073,36.487 -28.104,50.292c-12.03,13.806 -26.132,24.456 -42.304,31.95c-16.172,7.495 -33.725,11.242 -52.658,11.242Zm-4.142,-30.767c30.372,0 54.433,-11.932 72.183,-35.796c17.75,-23.864 26.625,-54.137 26.625,-90.821c0,-18.144 -2.268,-35.105 -6.804,-50.883c-4.536,-15.778 -11.044,-29.386 -19.525,-40.825c-8.48,-11.439 -19.032,-20.412 -31.654,-26.921c-12.622,-6.508 -26.822,-9.762 -42.6,-9.762c-16.172,-0 -30.668,3.254 -43.488,9.762c-12.819,6.509 -23.568,15.581 -32.245,27.217c-8.678,11.636 -15.285,25.343 -19.821,41.121c-4.536,15.778 -6.804,32.739 -6.804,50.883c-0,36.683 9.072,66.858 27.216,90.525c18.145,23.667 43.784,35.5 76.917,35.5Z" style="fill-rule:nonzero;"/><path d="M8342.14,2669.62c-14.2,-0 -27.709,-1.874 -40.529,-5.621c-12.819,-3.747 -23.962,-9.565 -33.429,-17.454c-9.467,-7.889 -16.961,-17.947 -22.483,-30.175c-5.523,-12.228 -8.284,-26.625 -8.284,-43.192c0,-16.172 2.959,-30.372 8.875,-42.6c5.917,-12.228 13.904,-22.385 23.963,-30.471c10.058,-8.086 21.694,-14.101 34.908,-18.046c13.214,-3.944 26.921,-5.916 41.121,-5.916c19.328,-0 36.387,3.353 51.179,10.058c14.792,6.706 26.329,16.172 34.613,28.4l-0,-53.25c-0,-24.85 -6.805,-43.685 -20.413,-56.504c-13.608,-12.819 -35.599,-19.229 -65.971,-19.229c-18.144,-0 -34.218,1.775 -48.221,5.325c-14.002,3.55 -25.934,7.494 -35.795,11.833l-0,-29.583c8.283,-4.734 20.609,-9.171 36.979,-13.313c16.369,-4.141 34.809,-6.212 55.321,-6.212c40.233,-0 69.225,9.368 86.975,28.104c17.75,18.736 26.625,44.079 26.625,76.029l-0,160.342c-0,9.466 0.394,18.637 1.183,27.512c0.789,8.875 1.775,15.679 2.958,20.413l-34.908,-0l-3.55,-37.867c-8.678,13.411 -21.201,23.667 -37.571,30.767c-16.369,7.1 -34.218,10.65 -53.546,10.65Zm11.834,-25.442c9.861,0 19.623,-1.479 29.287,-4.437c9.664,-2.959 18.243,-7.495 25.738,-13.609c7.494,-6.114 13.509,-13.707 18.045,-22.779c4.537,-9.072 6.805,-19.722 6.805,-31.95c-0,-11.439 -2.17,-21.497 -6.509,-30.175c-4.339,-8.678 -10.157,-15.876 -17.454,-21.596c-7.297,-5.719 -15.679,-10.058 -25.146,-13.016c-9.466,-2.959 -19.13,-4.438 -28.991,-4.438c-21.3,0 -40.135,5.621 -56.505,16.863c-16.369,11.241 -24.554,28.695 -24.554,52.362c0,25.639 7.889,44.178 23.667,55.617c15.778,11.439 34.317,17.158 55.617,17.158Z" style="fill-rule:nonzero;"/><path d="M8626.73,2670.21c-20.511,0 -38.853,-1.972 -55.025,-5.916c-16.172,-3.945 -29.781,-8.678 -40.825,-14.2l-0,-30.767c14.2,6.311 28.597,11.439 43.192,15.383c14.594,3.945 31.752,5.917 51.475,5.917c20.511,0 37.965,-4.142 52.362,-12.425c14.397,-8.283 21.596,-20.905 21.596,-37.867c-0,-17.75 -6.706,-31.062 -20.117,-39.937c-13.411,-8.875 -35.697,-19.821 -66.858,-32.838c-33.528,-13.805 -55.715,-26.526 -66.563,-38.162c-10.847,-11.636 -16.27,-27.118 -16.27,-46.446c-0,-22.483 9.861,-41.318 29.583,-56.504c19.722,-15.186 46.742,-22.779 81.058,-22.779c19.328,-0 35.993,1.775 49.996,5.325c14.003,3.55 25.738,7.297 35.204,11.241l0,32.542c-12.228,-5.128 -24.948,-9.565 -38.162,-13.312c-13.214,-3.748 -28.696,-5.621 -46.446,-5.621c-22.878,-0 -41.121,3.944 -54.729,11.833c-13.609,7.889 -20.413,19.722 -20.413,35.5c0,13.017 5.227,23.963 15.679,32.838c10.453,8.875 31.457,19.623 63.013,32.245c30.372,12.228 53.151,24.456 68.337,36.684c15.187,12.228 22.78,30.372 22.78,54.433c-0,13.806 -3.057,25.935 -9.171,36.388c-6.114,10.452 -14.2,19.13 -24.259,26.033c-10.058,6.903 -21.694,12.031 -34.908,15.383c-13.214,3.353 -26.724,5.029 -40.529,5.029Z" style="fill-rule:nonzero;"/><path d="M8929.66,2670.21c-21.3,0 -41.416,-3.451 -60.35,-10.354c-18.933,-6.902 -35.303,-17.158 -49.108,-30.766c-13.806,-13.609 -24.85,-30.57 -33.133,-50.884c-8.284,-20.314 -12.425,-43.882 -12.425,-70.704c-0,-22.878 3.451,-43.783 10.354,-62.717c6.903,-18.933 16.369,-35.204 28.4,-48.812c12.03,-13.608 26.132,-24.16 42.304,-31.654c16.172,-7.495 33.528,-11.242 52.067,-11.242c21.3,0 40.036,3.747 56.208,11.242c16.172,7.494 29.485,17.75 39.937,30.766c10.453,13.017 18.243,28.499 23.371,46.446c5.128,17.948 7.297,37.374 6.509,58.279l-0.592,11.834l-221.875,-0c0.394,21.3 4.043,39.937 10.946,55.912c6.903,15.975 15.876,29.386 26.921,40.234c11.044,10.847 23.962,18.933 38.754,24.258c14.791,5.325 30.668,7.987 47.629,7.987c19.722,0 37.472,-2.859 53.25,-8.579c15.778,-5.719 29.189,-11.932 40.233,-18.637l0,29.583c-11.044,7.889 -24.85,14.496 -41.416,19.821c-16.567,5.325 -35.895,7.987 -57.984,7.987Zm-21.891,-283.408c-25.639,0 -47.038,8.875 -64.196,26.625c-17.159,17.75 -27.513,41.614 -31.063,71.592l188.15,-0c-0.789,-30.767 -9.762,-54.828 -26.921,-72.184c-17.158,-17.355 -39.148,-26.033 -65.97,-26.033Z" style="fill-rule:nonzero;"/></g></g></svg>