<?xml version="1.0" encoding="UTF-8" standalone="no"?><!DOCTYPE svg PUBLIC "-//W3C//DTD SVG 1.1//EN" "http://www.w3.org/Graphics/SVG/1.1/DTD/svg11.dtd"><svg width="100%" height="100%" viewBox="0 0 12500 3334" version="1.1" xmlns="http://www.w3.org/2000/svg" xmlns:xlink="http://www.w3.org/1999/xlink" xml:space="preserve" xmlns:serif="http://www.serif.com/" style="fill-rule:evenodd;clip-rule:evenodd;stroke-linecap:round;stroke-miterlimit:10;"><g id="DB"><g transform="matrix(41.6667,0,0,41.6667,-2166.32,-16551.7)"><text x="121.799px" y="445.358px" style="font-family:'LCTPicon-Bold', 'LCT Picon', sans-serif;font-weight:700;font-size:40.721px;fill:#1d1e1c;">K<tspan x="145.702px " y="445.358px ">O</tspan>DEIN</text><text x="267.131px" y="445.358px" style="font-family:'LCTPicon-Light', 'LCT Picon', sans-serif;font-weight:300;font-size:40.721px;fill:#fcc319;">DB</text></g><path d="M722.571,2245.38c0,185.076 150.258,335.334 335.333,335.334c185.076,-0 335.334,-150.258 335.334,-335.334c-0,-185.075 -150.258,-335.333 -335.334,-335.333c-185.075,-0 -335.333,150.258 -335.333,335.333Z" style="fill:none;stroke:#1d1d1b;stroke-width:160.38px;"/><path d="M1062.74,1910.05c461.25,0 835.167,184.25 835.167,645.5c-0,369.917 -309.75,645.5 -793.625,645.5c-459.25,0 -949.625,-323.458 -949.625,-1034.54c-0,-711 766.083,-1413.88 1477.12,-1413.88" style="fill:none;fill-rule:nonzero;stroke:#1d1d1b;stroke-width:160.38px;"/><path d="M1992.33,1087.95c0,-185.075 -150.248,-335.333 -335.312,-335.333c-185.064,-0 -335.313,150.258 -335.313,335.333c0,185.076 150.249,335.333 335.313,335.333c185.064,0 335.312,-150.257 335.312,-335.333Z" style="fill:none;stroke:#1d1d1b;stroke-width:160.38px;"/><path d="M1652.16,1423.28c-461.25,0 -835.167,-184.25 -835.167,-645.5c-0,-369.875 309.75,-645.5 793.625,-645.5c459.25,0 949.625,323.5 949.625,1034.54c-0,711.042 -766.083,1413.88 -1477.12,1413.88" style="fill:none;fill-rule:nonzero;stroke:#1d1d1b;stroke-width:160.38px;"/><g><path d="M6035.55,2612.96l271.834,-271.375l-545.167,-0l-0,545.125l545.167,-0l-271.959,-273.625l0.125,-0.125Z" style="fill:#000400;fill-rule:nonzero;"/><text x="2908.62px" y="2881.16px" style="font-family:'LCTPicon-Light', 'LCT Picon', sans-serif;font-weight:300;font-size:788.889px;">p<tspan x="3355.14px " y="2881.16px ">a</tspan>inles<tspan x="5230.32px " y="2881.16px ">s</tspan></text><text x="6450.29px" y="2881.16px" style="font-family:'LCTPicon-Light', 'LCT Picon', sans-serif;font-weight:300;font-size:788.889px;">NoS<tspan x="7830.85px " y="2881.16px ">Q</tspan>L da<tspan x="9836.99px 10088.6px 10479.9px 10928.8px 11320.1px 11642.8px " y="2881.16px 2881.16px 2881.16px 2881.16px 2881.16px 2881.16px ">tabase</tspan></text></g></g></svg>